<svg class="ProductIcon " viewBox="0 0 16 16" fill="currentColor" xmlns="http://www.w3.org/2000/svg"><path fill-rule="evenodd" clip-rule="evenodd" d="M1.7602 11.0312C2.05309 10.7383 2.52796 10.7383 2.82086 11.0312L4.96945 13.1798C5.26234 13.4727 5.26235 13.9475 4.96945 14.2404C4.67656 14.5333 4.20169 14.5333 3.90879 14.2404L1.7602 12.0919C1.4673 11.799 1.4673 11.3241 1.7602 11.0312Z" fill="currentColor"/><path fill-rule="evenodd" clip-rule="evenodd" d="M14.2577 1.15777C14.5522 1.21791 14.7823 1.44805 14.8425 1.74253C15.2421 3.69914 14.9478 5.76273 14.0354 7.29055C13.0727 8.90275 12.0075 9.97924 10.7799 10.7446C9.56527 11.502 8.23047 11.9295 6.78183 12.2976C6.52549 12.3628 6.25378 12.2881 6.06676 12.1011L3.89913 9.93346C3.7121 9.74643 3.63742 9.47472 3.70257 9.21837C4.07077 7.76977 4.49831 6.43499 5.25572 5.22036C6.02117 3.99285 7.09773 2.92771 8.71003 1.96508C10.2378 1.05291 12.301 0.75814 14.2577 1.15777ZM10.2426 5.75745C10.7949 6.3098 11.6904 6.3098 12.2428 5.75745C12.7951 5.2051 12.7951 4.30958 12.2428 3.75723C11.6904 3.20489 10.7949 3.20489 10.2426 3.75723C9.69021 4.30958 9.69021 5.2051 10.2426 5.75745Z" fill="currentColor"/><path d="M6.00056 3.07324C5.50375 3.58639 5.08372 4.12879 4.72414 4.70545C3.88214 6.05573 3.41576 7.52597 3.02402 9.0672C2.98283 9.22924 2.97346 9.39478 2.99366 9.55562L1.03466 9.06587C0.79804 9.00672 0.604964 8.8362 0.517015 8.60872C0.429066 8.38123 0.457228 8.12518 0.592519 7.92225L3.45731 3.62508C3.58021 3.44073 3.77833 3.32016 3.99853 3.29569L6.00056 3.07324Z" fill="currentColor"/><path d="M6.43921 12.9849C6.59424 13.0022 6.75333 12.992 6.90919 12.9524C8.45046 12.5607 9.9207 12.0944 11.271 11.2524C11.8588 10.8859 12.411 10.4566 12.9329 9.94727L12.7046 12.0018C12.6801 12.222 12.5596 12.4201 12.3752 12.543L8.07803 15.4078C7.87509 15.5431 7.61904 15.5712 7.39155 15.4833C7.16406 15.3953 6.99355 15.2023 6.93439 14.9656L6.43921 12.9849Z" fill="currentColor"/></svg>